<svg width="226" height="25" viewBox="0 0 226 25" fill="none" xmlns="http://www.w3.org/2000/svg">
<path d="M14.9492 8.89062C14.9492 10.375 14.4727 11.6328 13.5195 12.6641C12.5664 13.6953 11.3516 14.2109 9.875 14.2109C8.91406 14.2109 8.10547 13.9922 7.44922 13.5547C6.80078 13.1172 6.30469 12.4609 5.96094 11.5859L5.1875 23.1172L2.85547 23.75L2.62109 13.4375L0.734375 13.6719L0.523438 11.6445L2.5625 11.3867L2.50391 9.30078L0.523438 9.45312L0.40625 7.35547L2.44531 7.23828L2.39844 5.19922L0.289062 5.44531L0.3125 3.3125C2.35156 3.19531 3.97656 3.10547 5.1875 3.04297C6.40625 2.98047 7.21484 2.94922 7.61328 2.94922C8.70703 2.94922 9.67969 3.05859 10.5312 3.27734C11.3906 3.49609 12.1328 3.82422 12.7578 4.26172C13.4844 4.76953 14.0312 5.41016 14.3984 6.18359C14.7656 6.95703 14.9492 7.85938 14.9492 8.89062ZM12.582 9.16016C12.582 7.74609 12.1562 6.6875 11.3047 5.98438C10.4609 5.27344 9.19141 4.91797 7.49609 4.91797C7.33984 4.91797 7.17969 4.92578 7.01562 4.94141C6.85156 4.94922 6.67969 4.95703 6.5 4.96484L6.21875 8.79688C6.5 8.08594 6.89062 7.55078 7.39062 7.19141C7.89844 6.82422 8.51953 6.64062 9.25391 6.64062C9.89453 6.64062 10.4375 6.84375 10.8828 7.25C11.3359 7.64844 11.5625 8.16406 11.5625 8.79688C11.5625 9.24219 11.418 9.625 11.1289 9.94531C10.8398 10.2578 10.4766 10.4141 10.0391 10.4141C9.75 10.4141 9.50781 10.3555 9.3125 10.2383C9.11719 10.1133 8.96875 9.92188 8.86719 9.66406L9.125 9.6875C9.42969 9.71875 9.65625 9.67188 9.80469 9.54688C9.96094 9.41406 10.0391 9.21094 10.0391 8.9375C10.0391 8.71094 9.97266 8.53906 9.83984 8.42188C9.70703 8.30469 9.51172 8.24609 9.25391 8.24609C8.99609 8.24609 8.76953 8.30469 8.57422 8.42188C8.38672 8.53125 8.21875 8.69531 8.07031 8.91406C7.94531 9.10156 7.85156 9.3125 7.78906 9.54688C7.73438 9.77344 7.70703 10.0234 7.70703 10.2969C7.70703 10.9297 7.91016 11.4453 8.31641 11.8438C8.72266 12.2422 9.24219 12.4414 9.875 12.4414C10.3125 12.4414 10.7031 12.3555 11.0469 12.1836C11.3906 12.0117 11.6836 11.7578 11.9258 11.4219C12.1445 11.1172 12.3086 10.7773 12.418 10.4023C12.5273 10.0195 12.582 9.60547 12.582 9.16016ZM23.4219 4.22656C22.8828 6.27344 22.4297 8.05078 22.0625 9.55859C21.7031 11.0586 21.4336 12.2891 21.2539 13.25C20.9727 14.7734 20.7539 16.3125 20.5977 17.8672C20.4492 19.4219 20.3633 20.9805 20.3398 22.543L17.5508 22.8594C17.4805 22.0781 17.4258 21.2812 17.3867 20.4688C17.3555 19.6484 17.3398 18.8047 17.3398 17.9375C17.3398 15.7656 17.4492 13.4688 17.668 11.0469C17.8867 8.625 18.2148 6.08203 18.6523 3.41797L23.4219 4.22656ZM21.5938 6.79297L21.1719 6.25391C20.625 7.12891 20.1289 8.08984 19.6836 9.13672C19.2461 10.1758 18.8555 11.2969 18.5117 12.5L19.5781 12.957C19.7656 11.8711 20.0273 10.8164 20.3633 9.79297C20.6992 8.76172 21.1094 7.76172 21.5938 6.79297ZM28.2734 8.97266L27.9102 12.0781L25.1562 11.4219L26.0469 9.51172L28.2734 8.97266ZM40.3203 4.90625L39.3711 6.93359L36.9688 6.85156L36.125 7.98828L38.2578 8.79688L36.9688 10.3789L34.9766 9.51172L33.8047 11.0352L35.5273 11.9023L34.5195 13.6953L32.5156 12.6758L27.9102 18.7227L38.2578 18.0664L38.9492 22.8008L23.4219 22.4258L34.7773 6.81641L25.4844 6.52344L26.1992 2.65625L40.3203 4.90625ZM29.8789 20.4336C29.8789 20.168 29.8125 19.9688 29.6797 19.8359C29.5547 19.6953 29.3633 19.625 29.1055 19.625C28.8477 19.625 28.6523 19.6953 28.5195 19.8359C28.3945 19.9688 28.332 20.168 28.332 20.4336C28.332 20.707 28.3945 20.9102 28.5195 21.043C28.6523 21.168 28.8477 21.2305 29.1055 21.2305C29.3633 21.2305 29.5547 21.168 29.6797 21.043C29.8125 20.9102 29.8789 20.707 29.8789 20.4336ZM33.4414 20.457C33.4414 20.1758 33.3398 19.9375 33.1367 19.7422C32.9414 19.5391 32.7031 19.4375 32.4219 19.4375C32.1484 19.4375 31.9062 19.5391 31.6953 19.7422C31.4844 19.9375 31.3789 20.1758 31.3789 20.457C31.3789 20.7383 31.4844 20.9805 31.6953 21.1836C31.9062 21.3789 32.1484 21.4766 32.4219 21.4766C32.7031 21.4766 32.9414 21.3789 33.1367 21.1836C33.3398 20.9805 33.4414 20.7383 33.4414 20.457ZM36.7227 20.5156C36.7227 20.2578 36.6602 20.0625 36.5352 19.9297C36.4102 19.7891 36.2148 19.7188 35.9492 19.7188C35.6914 19.7188 35.4922 19.7891 35.3516 19.9297C35.2188 20.0625 35.1523 20.2578 35.1523 20.5156C35.1523 20.7812 35.2188 20.9766 35.3516 21.1016C35.4922 21.2266 35.6914 21.2891 35.9492 21.2891C36.2148 21.2891 36.4102 21.2266 36.5352 21.1016C36.6602 20.9766 36.7227 20.7812 36.7227 20.5156ZM45.1719 8.97266L44.8086 12.0781L42.0547 11.4219L42.9453 9.51172L45.1719 8.97266ZM57.2188 4.90625L56.2695 6.93359L53.8672 6.85156L53.0234 7.98828L55.1562 8.79688L53.8672 10.3789L51.875 9.51172L50.7031 11.0352L52.4258 11.9023L51.418 13.6953L49.4141 12.6758L44.8086 18.7227L55.1562 18.0664L55.8477 22.8008L40.3203 22.4258L51.6758 6.81641L42.3828 6.52344L43.0977 2.65625L57.2188 4.90625ZM46.7773 20.4336C46.7773 20.168 46.7109 19.9688 46.5781 19.8359C46.4531 19.6953 46.2617 19.625 46.0039 19.625C45.7461 19.625 45.5508 19.6953 45.418 19.8359C45.293 19.9688 45.2305 20.168 45.2305 20.4336C45.2305 20.707 45.293 20.9102 45.418 21.043C45.5508 21.168 45.7461 21.2305 46.0039 21.2305C46.2617 21.2305 46.4531 21.168 46.5781 21.043C46.7109 20.9102 46.7773 20.707 46.7773 20.4336ZM50.3398 20.457C50.3398 20.1758 50.2383 19.9375 50.0352 19.7422C49.8398 19.5391 49.6016 19.4375 49.3203 19.4375C49.0469 19.4375 48.8047 19.5391 48.5938 19.7422C48.3828 19.9375 48.2773 20.1758 48.2773 20.457C48.2773 20.7383 48.3828 20.9805 48.5938 21.1836C48.8047 21.3789 49.0469 21.4766 49.3203 21.4766C49.6016 21.4766 49.8398 21.3789 50.0352 21.1836C50.2383 20.9805 50.3398 20.7383 50.3398 20.457ZM53.6211 20.5156C53.6211 20.2578 53.5586 20.0625 53.4336 19.9297C53.3086 19.7891 53.1133 19.7188 52.8477 19.7188C52.5898 19.7188 52.3906 19.7891 52.25 19.9297C52.1172 20.0625 52.0508 20.2578 52.0508 20.5156C52.0508 20.7812 52.1172 20.9766 52.25 21.1016C52.3906 21.2266 52.5898 21.2891 52.8477 21.2891C53.1133 21.2891 53.3086 21.2266 53.4336 21.1016C53.5586 20.9766 53.6211 20.7812 53.6211 20.5156ZM67.4375 7.15625L67.0859 10.2617L64.3555 9.59375L65.2695 7.68359L67.4375 7.15625ZM71.4805 7.92969L69.6055 8.46875C69.543 7.64062 69.3633 6.95703 69.0664 6.41797C68.7773 5.87109 68.3672 5.46484 67.8359 5.19922C67.5469 5.05859 67.0781 4.92969 66.4297 4.8125C65.7891 4.6875 64.9727 4.58594 63.9805 4.50781L63.0781 12.2422L69.0664 11.9258L67.5664 15.2891L62.7852 14.2695L61.7305 22.1094L66.125 22.168L67.6602 19.918L70.1094 19.7773L70.168 23.5156L58.8711 22.8828L59.5273 10.6484L61.0977 10.7305L61.3555 9.72266L59.5508 9.69922L59.6445 8.28125L61.3555 8.41016L61.5312 7.15625H59.7031L59.7617 5.77344L61.4727 5.90234L61.707 4.82422L59.8203 4.73047L59.9375 2.59766C60.7109 2.66016 61.4883 2.72266 62.2695 2.78516C63.0508 2.83984 63.832 2.89062 64.6133 2.9375C65.543 3.04688 66.3711 3.20703 67.0977 3.41797C67.8242 3.62109 68.4453 3.87891 68.9609 4.19141C69.6406 4.59766 70.1875 5.11328 70.6016 5.73828C71.0234 6.36328 71.3164 7.09375 71.4805 7.92969ZM88.9414 20.8555C88.5977 21.5977 88.1914 22.1523 87.7227 22.5195C87.2539 22.8789 86.7266 23.0586 86.1406 23.0586C85.4922 23.0586 84.8359 22.8398 84.1719 22.4023C83.5156 21.9648 82.8516 21.3086 82.1797 20.4336L78.2305 15.2656L76.8008 15.6641L76.4023 23.0586L74.2227 23.4219L73.4258 2.59766L74.6211 2.57422L74.6797 4.07422L76.8828 4.25L77.1055 2.82031L78.2891 2.90234L78.1367 4.44922L79.7656 4.84766L80.4805 3.34766L81.5 3.82812L80.7969 5.23438C81.1797 5.38281 81.5117 5.57422 81.793 5.80859C82.082 6.03516 82.3281 6.29297 82.5312 6.58203L83.6797 5.77344L84.4531 6.64062L82.9648 7.625C83.0898 7.91406 83.1719 8.24219 83.2109 8.60938C83.25 8.97656 83.2422 9.37891 83.1875 9.81641L84.875 10.4141L84.3945 11.4453L82.9648 10.918C82.8867 11.2227 82.7656 11.5312 82.6016 11.8438C82.4375 12.1484 82.2344 12.4492 81.9922 12.7461L83.1289 13.7539L82.4141 14.6914L81.1367 13.7305L80.5391 14.0586L84.2773 20.0117C84.4102 20.2148 84.5625 20.4102 84.7344 20.5977C84.9141 20.7852 85.1172 20.9609 85.3438 21.125C85.6016 21.3125 85.8477 21.4531 86.082 21.5469C86.3242 21.6406 86.5547 21.6875 86.7734 21.6875C87.0859 21.6875 87.3867 21.6016 87.6758 21.4297C87.9648 21.2578 88.2461 21.0039 88.5195 20.668L88.9414 20.8555ZM80.6211 12.3242L79.2266 6.07812C78.9922 5.97656 78.7266 5.88672 78.4297 5.80859C78.1406 5.72266 77.8164 5.65234 77.457 5.59766L76.8828 14.3281C77.6719 14.125 78.3789 13.8555 79.0039 13.5195C79.6289 13.1836 80.168 12.7852 80.6211 12.3242ZM95.6328 4.22656C95.0938 6.27344 94.6406 8.05078 94.2734 9.55859C93.9141 11.0586 93.6445 12.2891 93.4648 13.25C93.1836 14.7734 92.9648 16.3125 92.8086 17.8672C92.6602 19.4219 92.5742 20.9805 92.5508 22.543L89.7617 22.8594C89.6914 22.0781 89.6367 21.2812 89.5977 20.4688C89.5664 19.6484 89.5508 18.8047 89.5508 17.9375C89.5508 15.7656 89.6602 13.4688 89.8789 11.0469C90.0977 8.625 90.4258 6.08203 90.8633 3.41797L95.6328 4.22656ZM93.8047 6.79297L93.3828 6.25391C92.8359 7.12891 92.3398 8.08984 91.8945 9.13672C91.457 10.1758 91.0664 11.2969 90.7227 12.5L91.7891 12.957C91.9766 11.8711 92.2383 10.8164 92.5742 9.79297C92.9102 8.76172 93.3203 7.76172 93.8047 6.79297ZM114.125 22.4023L112.051 22.8828L110.645 18.6055L102.242 18.4883L100.145 24.1953L95.6328 21.0898L104.457 2.99609L107.715 2.71484L114.125 22.4023ZM108.793 13.0156L106.59 5.14062L103.566 14.2109L108.793 13.0156ZM109.953 16.543L109.273 14.5039L102.969 16.0625L102.594 17.0117L109.953 16.543ZM101.281 15.2891L100.859 14.75C100.297 15.6875 99.7969 16.6758 99.3594 17.7148C98.9219 18.7539 98.5469 19.8477 98.2344 20.9961L99.3125 21.4531C99.4688 20.3828 99.7109 19.3359 100.039 18.3125C100.375 17.2812 100.789 16.2734 101.281 15.2891ZM132.383 13.25C132.383 13.5312 132.309 13.7422 132.16 13.8828C132.02 14.0234 131.809 14.0938 131.527 14.0938C131.246 14.0938 131.031 14.0234 130.883 13.8828C130.742 13.7422 130.672 13.5312 130.672 13.25C130.672 12.9766 130.742 12.7695 130.883 12.6289C131.031 12.4883 131.246 12.418 131.527 12.418C131.809 12.418 132.02 12.4883 132.16 12.6289C132.309 12.7695 132.383 12.9766 132.383 13.25ZM136.59 21.4766L133.121 23.9609L126.125 12.4766L126.418 22.6016L122.363 23.3398L123.219 3.55859L125.855 3.25391L126.066 11.1875C127.316 10.7891 128.422 10.3477 129.383 9.86328C130.352 9.37109 131.172 8.85156 131.844 8.30469C132.695 7.61719 133.395 6.82422 133.941 5.92578C134.488 5.01953 134.883 4.01172 135.125 2.90234L136.496 3.3125C136.324 4.64844 136.031 5.8125 135.617 6.80469C135.203 7.79688 134.672 8.625 134.023 9.28906C133.484 9.84375 132.746 10.3828 131.809 10.9062C130.871 11.4219 129.73 11.9258 128.387 12.418L136.59 21.4766ZM134.047 15.4062C134.047 15.6875 133.977 15.8984 133.836 16.0391C133.703 16.1719 133.496 16.2383 133.215 16.2383C132.941 16.2383 132.734 16.1719 132.594 16.0391C132.453 15.8984 132.383 15.6875 132.383 15.4062C132.383 15.125 132.453 14.9141 132.594 14.7734C132.734 14.6328 132.941 14.5625 133.215 14.5625C133.496 14.5625 133.703 14.6328 133.836 14.7734C133.977 14.9141 134.047 15.125 134.047 15.4062ZM135.922 17.6094C135.922 17.8906 135.855 18.1016 135.723 18.2422C135.59 18.3828 135.379 18.4531 135.09 18.4531C134.824 18.4531 134.617 18.3828 134.469 18.2422C134.328 18.1016 134.258 17.8906 134.258 17.6094C134.258 17.3359 134.328 17.1289 134.469 16.9883C134.617 16.8477 134.824 16.7773 135.09 16.7773C135.379 16.7773 135.59 16.8477 135.723 16.9883C135.855 17.1289 135.922 17.3359 135.922 17.6094ZM137.855 19.8594C137.855 20.1406 137.785 20.3516 137.645 20.4922C137.504 20.625 137.293 20.6914 137.012 20.6914C136.738 20.6914 136.531 20.625 136.391 20.4922C136.25 20.3516 136.18 20.1406 136.18 19.8594C136.18 19.5859 136.25 19.3789 136.391 19.2383C136.531 19.0977 136.738 19.0273 137.012 19.0273C137.293 19.0273 137.504 19.0977 137.645 19.2383C137.785 19.3789 137.855 19.5859 137.855 19.8594ZM143.328 5.36328C143.328 5.95703 143.109 6.65234 142.672 7.44922C142.234 8.24609 141.578 9.14062 140.703 10.1328L139.742 9.51172C140.102 9.01953 140.402 8.57812 140.645 8.1875C140.895 7.78906 141.09 7.44531 141.23 7.15625C140.676 7.15625 140.184 6.96484 139.754 6.58203C139.324 6.19922 139.109 5.73047 139.109 5.17578C139.109 4.61328 139.324 4.14453 139.754 3.76953C140.184 3.38672 140.676 3.19531 141.23 3.19531C141.863 3.19531 142.371 3.39844 142.754 3.80469C143.137 4.21094 143.328 4.73047 143.328 5.36328ZM141.887 5.08203C141.887 4.76953 141.809 4.53516 141.652 4.37891C141.496 4.21484 141.258 4.13281 140.938 4.13281C140.617 4.13281 140.375 4.21484 140.211 4.37891C140.055 4.53516 139.977 4.76953 139.977 5.08203C139.977 5.40234 140.055 5.64453 140.211 5.80859C140.375 5.96484 140.617 6.04297 140.938 6.04297C141.258 6.04297 141.496 5.96484 141.652 5.80859C141.809 5.64453 141.887 5.40234 141.887 5.08203ZM163.695 22.4023L161.621 22.8828L160.215 18.6055L151.812 18.4883L149.715 24.1953L145.203 21.0898L154.027 2.99609L157.285 2.71484L163.695 22.4023ZM158.363 13.0156L156.16 5.14062L153.137 14.2109L158.363 13.0156ZM159.523 16.543L158.844 14.5039L152.539 16.0625L152.164 17.0117L159.523 16.543ZM150.852 15.2891L150.43 14.75C149.867 15.6875 149.367 16.6758 148.93 17.7148C148.492 18.7539 148.117 19.8477 147.805 20.9961L148.883 21.4531C149.039 20.3828 149.281 19.3359 149.609 18.3125C149.945 17.2812 150.359 16.2734 150.852 15.2891ZM183.043 10.6953C183.043 10.9375 183.039 11.1836 183.031 11.4336C183.023 11.6758 183.012 11.9258 182.996 12.1836L182.398 24.2305L169.566 11.1875L169.039 22.3672L164.305 22.4023L165.711 18.6055L167.984 18.4883L168.969 2.09375L180.254 16.0039C180.316 15.2539 180.383 14.5078 180.453 13.7656C180.523 13.0234 180.594 12.2773 180.664 11.5273C180.75 10.6367 180.812 9.81641 180.852 9.06641C180.891 8.31641 180.91 7.63672 180.91 7.02734C180.91 5.75391 180.762 4.61328 180.465 3.60547C180.168 2.59766 179.719 1.72656 179.117 0.992188L179.891 0.511719C180.938 1.66016 181.723 3.08203 182.246 4.77734C182.777 6.47266 183.043 8.44531 183.043 10.6953ZM173.152 10.4141C173.152 10.1328 173.082 9.92188 172.941 9.78125C172.809 9.64062 172.602 9.57031 172.32 9.57031C172.047 9.57031 171.84 9.64062 171.699 9.78125C171.559 9.92188 171.488 10.1328 171.488 10.4141C171.488 10.6953 171.559 10.9062 171.699 11.0469C171.84 11.1797 172.047 11.2461 172.32 11.2461C172.602 11.2461 172.809 11.1797 172.941 11.0469C173.082 10.9062 173.152 10.6953 173.152 10.4141ZM176.41 14C176.41 13.7031 176.305 13.4453 176.094 13.2266C175.883 13.0078 175.633 12.8984 175.344 12.8984C175.031 12.8984 174.766 13.0078 174.547 13.2266C174.336 13.4375 174.23 13.6953 174.23 14C174.23 14.3047 174.336 14.5586 174.547 14.7617C174.766 14.9648 175.031 15.0664 175.344 15.0664C175.633 15.0664 175.883 14.9648 176.094 14.7617C176.305 14.5508 176.41 14.2969 176.41 14ZM179.34 17.5508C179.34 17.2773 179.273 17.0703 179.141 16.9297C179.008 16.7891 178.797 16.7188 178.508 16.7188C178.227 16.7188 178.016 16.7891 177.875 16.9297C177.734 17.0703 177.664 17.2773 177.664 17.5508C177.664 17.832 177.734 18.043 177.875 18.1836C178.016 18.3242 178.227 18.3945 178.508 18.3945C178.797 18.3945 179.008 18.3242 179.141 18.1836C179.273 18.043 179.34 17.832 179.34 17.5508ZM197.691 8.02344L197.328 8.82031L196.496 8.41016C196.387 8.59766 196.254 8.75 196.098 8.86719C195.949 8.98438 195.781 9.07031 195.594 9.125L195.805 9.81641L194.809 9.95703L194.785 9.24219C194.551 9.21094 194.344 9.15234 194.164 9.06641C193.984 8.97266 193.832 8.84375 193.707 8.67969L192.957 9.16016L192.535 8.33984L193.379 7.98828C193.355 7.83984 193.344 7.66797 193.344 7.47266C193.344 7.27734 193.355 7.05859 193.379 6.81641L192.594 6.64062L192.758 5.73828L193.555 6.01953C193.633 5.77734 193.738 5.51953 193.871 5.24609C194.012 4.96484 194.176 4.66016 194.363 4.33203L193.672 3.67578L194.27 2.99609L194.844 3.67578C194.883 3.63672 194.961 3.5625 195.078 3.45312C195.203 3.34375 195.363 3.19922 195.559 3.01953L196.191 3.59375C195.84 3.88281 195.574 4.22266 195.395 4.61328C195.215 4.99609 195.125 5.42578 195.125 5.90234C195.258 5.90234 195.402 5.92578 195.559 5.97266C195.723 6.01172 195.895 6.07422 196.074 6.16016L196.672 5.38672L197.328 6.01953L196.52 6.61719C196.613 6.75 196.68 6.91406 196.719 7.10938C196.766 7.30469 196.789 7.53125 196.789 7.78906L197.691 8.02344ZM206.867 4.22656C206.328 6.27344 205.875 8.05078 205.508 9.55859C205.148 11.0586 204.879 12.2891 204.699 13.25C204.418 14.7734 204.199 16.3125 204.043 17.8672C203.895 19.4219 203.809 20.9805 203.785 22.543L200.996 22.8594C200.926 22.0781 200.871 21.2812 200.832 20.4688C200.801 19.6484 200.785 18.8047 200.785 17.9375C200.785 15.7656 200.895 13.4688 201.113 11.0469C201.332 8.625 201.66 6.08203 202.098 3.41797L206.867 4.22656ZM205.039 6.79297L204.617 6.25391C204.07 7.12891 203.574 8.08984 203.129 9.13672C202.691 10.1758 202.301 11.2969 201.957 12.5L203.023 12.957C203.211 11.8711 203.473 10.8164 203.809 9.79297C204.145 8.76172 204.555 7.76172 205.039 6.79297ZM225.605 10.6953C225.605 10.9375 225.602 11.1836 225.594 11.4336C225.586 11.6758 225.574 11.9258 225.559 12.1836L224.961 24.2305L212.129 11.1875L211.602 22.3672L206.867 22.4023L208.273 18.6055L210.547 18.4883L211.531 2.09375L222.816 16.0039C222.879 15.2539 222.945 14.5078 223.016 13.7656C223.086 13.0234 223.156 12.2773 223.227 11.5273C223.312 10.6367 223.375 9.81641 223.414 9.06641C223.453 8.31641 223.473 7.63672 223.473 7.02734C223.473 5.75391 223.324 4.61328 223.027 3.60547C222.73 2.59766 222.281 1.72656 221.68 0.992188L222.453 0.511719C223.5 1.66016 224.285 3.08203 224.809 4.77734C225.34 6.47266 225.605 8.44531 225.605 10.6953ZM215.715 10.4141C215.715 10.1328 215.645 9.92188 215.504 9.78125C215.371 9.64062 215.164 9.57031 214.883 9.57031C214.609 9.57031 214.402 9.64062 214.262 9.78125C214.121 9.92188 214.051 10.1328 214.051 10.4141C214.051 10.6953 214.121 10.9062 214.262 11.0469C214.402 11.1797 214.609 11.2461 214.883 11.2461C215.164 11.2461 215.371 11.1797 215.504 11.0469C215.645 10.9062 215.715 10.6953 215.715 10.4141ZM218.973 14C218.973 13.7031 218.867 13.4453 218.656 13.2266C218.445 13.0078 218.195 12.8984 217.906 12.8984C217.594 12.8984 217.328 13.0078 217.109 13.2266C216.898 13.4375 216.793 13.6953 216.793 14C216.793 14.3047 216.898 14.5586 217.109 14.7617C217.328 14.9648 217.594 15.0664 217.906 15.0664C218.195 15.0664 218.445 14.9648 218.656 14.7617C218.867 14.5508 218.973 14.2969 218.973 14ZM221.902 17.5508C221.902 17.2773 221.836 17.0703 221.703 16.9297C221.57 16.7891 221.359 16.7188 221.07 16.7188C220.789 16.7188 220.578 16.7891 220.438 16.9297C220.297 17.0703 220.227 17.2773 220.227 17.5508C220.227 17.832 220.297 18.043 220.438 18.1836C220.578 18.3242 220.789 18.3945 221.07 18.3945C221.359 18.3945 221.57 18.3242 221.703 18.1836C221.836 18.043 221.902 17.832 221.902 17.5508Z" fill="black"/>
</svg>
